<?xml version="1.0" ?>
<mxfile host="app.diagrams.net">
  <diagram name="YouTube Logical Data Model">
    <mxGraphModel dx="1420" dy="880" grid="1" gridSize="10" page="1" pageWidth="1920" pageHeight="1080">
      <root>
        <mxCell id="0"/>
        <mxCell id="1" parent="0"/>
        <mxCell id="User" value="&lt;b&gt;User&lt;/b&gt;&lt;br&gt;PK user_id&lt;br&gt;username&lt;br&gt;email&lt;br&gt;password_hash&lt;br&gt;join_date&lt;br&gt;country&lt;br&gt;avatar_url&lt;br&gt;role" vertex="1" parent="1" style="shape=rectangle;whiteSpace=wrap;html=1;rounded=0;fontSize=11;align=left;spacingLeft=8;">
          <mxGeometry x="80" y="80" width="240" height="140" as="geometry"/>
        </mxCell>
        <mxCell id="Channel" value="&lt;b&gt;Channel&lt;/b&gt;&lt;br&gt;PK channel_id&lt;br&gt;name&lt;br&gt;description&lt;br&gt;creation_date&lt;br&gt;total_subscribers&lt;br&gt;FK owner_id → User.user_id" vertex="1" parent="1" style="shape=rectangle;whiteSpace=wrap;html=1;rounded=0;fontSize=11;align=left;spacingLeft=8;">
          <mxGeometry x="360" y="80" width="240" height="140" as="geometry"/>
        </mxCell>
        <mxCell id="Video" value="&lt;b&gt;Video&lt;/b&gt;&lt;br&gt;PK video_id&lt;br&gt;title&lt;br&gt;description&lt;br&gt;upload_date&lt;br&gt;duration&lt;br&gt;views&lt;br&gt;likes&lt;br&gt;dislikes&lt;br&gt;privacy_status&lt;br&gt;FK category_id → Category.category_id&lt;br&gt;FK channel_id → Channel.channel_id" vertex="1" parent="1" style="shape=rectangle;whiteSpace=wrap;html=1;rounded=0;fontSize=11;align=left;spacingLeft=8;">
          <mxGeometry x="640" y="80" width="240" height="140" as="geometry"/>
        </mxCell>
        <mxCell id="Comment" value="&lt;b&gt;Comment&lt;/b&gt;&lt;br&gt;PK comment_id&lt;br&gt;text&lt;br&gt;created_at&lt;br&gt;likes_count&lt;br&gt;FK user_id → User.user_id&lt;br&gt;FK video_id → Video.video_id" vertex="1" parent="1" style="shape=rectangle;whiteSpace=wrap;html=1;rounded=0;fontSize=11;align=left;spacingLeft=8;">
          <mxGeometry x="920" y="80" width="240" height="140" as="geometry"/>
        </mxCell>
        <mxCell id="Playlist" value="&lt;b&gt;Playlist&lt;/b&gt;&lt;br&gt;PK playlist_id&lt;br&gt;title&lt;br&gt;description&lt;br&gt;created_at&lt;br&gt;visibility&lt;br&gt;FK user_id → User.user_id" vertex="1" parent="1" style="shape=rectangle;whiteSpace=wrap;html=1;rounded=0;fontSize=11;align=left;spacingLeft=8;">
          <mxGeometry x="80" y="360" width="240" height="140" as="geometry"/>
        </mxCell>
        <mxCell id="Subscription" value="&lt;b&gt;Subscription&lt;/b&gt;&lt;br&gt;PK (user_id, channel_id)&lt;br&gt;FK user_id → User.user_id&lt;br&gt;FK channel_id → Channel.channel_id&lt;br&gt;created_at" vertex="1" parent="1" style="shape=rectangle;whiteSpace=wrap;html=1;rounded=0;fontSize=11;align=left;spacingLeft=8;">
          <mxGeometry x="360" y="360" width="240" height="140" as="geometry"/>
        </mxCell>
        <mxCell id="Tag" value="&lt;b&gt;Tag&lt;/b&gt;&lt;br&gt;PK tag_id&lt;br&gt;name&lt;br&gt;description" vertex="1" parent="1" style="shape=rectangle;whiteSpace=wrap;html=1;rounded=0;fontSize=11;align=left;spacingLeft=8;">
          <mxGeometry x="640" y="360" width="240" height="140" as="geometry"/>
        </mxCell>
        <mxCell id="Category" value="&lt;b&gt;Category&lt;/b&gt;&lt;br&gt;PK category_id&lt;br&gt;name&lt;br&gt;description" vertex="1" parent="1" style="shape=rectangle;whiteSpace=wrap;html=1;rounded=0;fontSize=11;align=left;spacingLeft=8;">
          <mxGeometry x="920" y="360" width="240" height="140" as="geometry"/>
        </mxCell>
        <mxCell id="VideoTag" value="&lt;b&gt;VideoTag&lt;/b&gt;&lt;br&gt;PK (video_id, tag_id)&lt;br&gt;FK video_id → Video.video_id&lt;br&gt;FK tag_id → Tag.tag_id" vertex="1" parent="1" style="shape=rectangle;whiteSpace=wrap;html=1;rounded=0;fontSize=11;align=left;spacingLeft=8;">
          <mxGeometry x="640" y="600" width="240" height="140" as="geometry"/>
        </mxCell>
        <mxCell id="PlaylistVideo" value="&lt;b&gt;PlaylistVideo&lt;/b&gt;&lt;br&gt;PK (playlist_id, video_id)&lt;br&gt;FK playlist_id → Playlist.playlist_id&lt;br&gt;FK video_id → Video.video_id&lt;br&gt;position&lt;br&gt;added_at" vertex="1" parent="1" style="shape=rectangle;whiteSpace=wrap;html=1;rounded=0;fontSize=11;align=left;spacingLeft=8;">
          <mxGeometry x="360" y="600" width="240" height="140" as="geometry"/>
        </mxCell>
        <mxCell id="rel_1" value="1:N" edge="1" parent="1" source="User" target="Channel" style="edgeStyle=orthogonalEdgeStyle;rounded=0;html=1;endArrow=none;fontSize=11;">
          <mxGeometry relative="1" as="geometry"/>
        </mxCell>
        <mxCell id="rel_2" value="1:N" edge="1" parent="1" source="Channel" target="Video" style="edgeStyle=orthogonalEdgeStyle;rounded=0;html=1;endArrow=none;fontSize=11;">
          <mxGeometry relative="1" as="geometry"/>
        </mxCell>
        <mxCell id="rel_3" value="1:N" edge="1" parent="1" source="Video" target="Comment" style="edgeStyle=orthogonalEdgeStyle;rounded=0;html=1;endArrow=none;fontSize=11;">
          <mxGeometry relative="1" as="geometry"/>
        </mxCell>
        <mxCell id="rel_4" value="1:N" edge="1" parent="1" source="User" target="Comment" style="edgeStyle=orthogonalEdgeStyle;rounded=0;html=1;endArrow=none;fontSize=11;">
          <mxGeometry relative="1" as="geometry"/>
        </mxCell>
        <mxCell id="rel_5" value="1:N" edge="1" parent="1" source="User" target="Playlist" style="edgeStyle=orthogonalEdgeStyle;rounded=0;html=1;endArrow=none;fontSize=11;">
          <mxGeometry relative="1" as="geometry"/>
        </mxCell>
        <mxCell id="rel_6" value="1:N" edge="1" parent="1" source="User" target="Subscription" style="edgeStyle=orthogonalEdgeStyle;rounded=0;html=1;endArrow=none;fontSize=11;">
          <mxGeometry relative="1" as="geometry"/>
        </mxCell>
        <mxCell id="rel_7" value="N:1" edge="1" parent="1" source="Subscription" target="Channel" style="edgeStyle=orthogonalEdgeStyle;rounded=0;html=1;endArrow=none;fontSize=11;">
          <mxGeometry relative="1" as="geometry"/>
        </mxCell>
        <mxCell id="rel_8" value="M:N via VideoTag" edge="1" parent="1" source="Video" target="Tag" style="edgeStyle=orthogonalEdgeStyle;rounded=0;html=1;endArrow=none;fontSize=11;">
          <mxGeometry relative="1" as="geometry"/>
        </mxCell>
        <mxCell id="rel_9" value="M:N via PlaylistVideo" edge="1" parent="1" source="Playlist" target="Video" style="edgeStyle=orthogonalEdgeStyle;rounded=0;html=1;endArrow=none;fontSize=11;">
          <mxGeometry relative="1" as="geometry"/>
        </mxCell>
        <mxCell id="rel_10" value="N:1" edge="1" parent="1" source="Video" target="Category" style="edgeStyle=orthogonalEdgeStyle;rounded=0;html=1;endArrow=none;fontSize=11;">
          <mxGeometry relative="1" as="geometry"/>
        </mxCell>
      </root>
    </mxGraphModel>
  </diagram>
</mxfile>
